# Blender v3.0.0 OBJ File: 'apartment.blend'
# www.blender.org
mtllib apartment.mtl
o Cube
v 4.634066 0.000000 -4.634066
v 0.932721 0.000000 -3.700474
v 5.000000 -0.500000 -5.000000
v 4.634066 0.000000 4.634066
v 5.000000 -0.500000 5.000000
v -4.634066 0.000000 -4.634066
v 2.301095 0.000000 -3.700474
v -5.000000 -0.500000 -5.000000
v -4.634066 0.000000 4.634066
v -5.000000 -0.500000 5.000000
v 5.000000 0.000000 5.000000
v -5.000000 0.000000 5.000000
v 5.000000 0.000000 -5.000000
v -5.000000 0.000000 -5.000000
v 4.689559 0.000000 4.689559
v -4.689559 0.000000 4.689559
v 4.689559 0.000000 -4.689559
v -4.689559 0.000000 -4.689559
v 5.000000 2.500000 5.000000
v -5.000000 2.500000 5.000000
v 5.000000 2.500000 -5.000000
v -5.000000 2.500000 -5.000000
v 4.689559 2.500000 4.689559
v -4.689559 2.500000 4.689559
v 0.006297 2.499000 0.054055
v -0.006297 2.499000 0.054055
v 5.000000 2.600000 -5.000000
v -5.000000 2.600000 -5.000000
v 4.783350 2.601000 -4.784558
v -4.783350 2.601000 -4.784558
v 0.006297 2.499000 0.066825
v -0.006297 2.499000 0.066825
v 4.783350 2.601000 4.905439
v -4.783350 2.601000 4.905439
v -4.783350 2.499000 -4.784558
v 4.783350 2.499000 -4.784558
v -4.783350 2.499000 4.905439
v 4.783350 2.499000 4.905439
v 0.000000 2.499000 0.051437
v 0.008879 2.499000 0.060440
v -0.008879 2.499000 0.060440
v 0.000000 2.499000 0.069444
v 0.006296 2.092003 0.054055
v -0.006298 2.092003 0.054055
v 0.006296 2.092003 0.066825
v -0.006298 2.092003 0.066825
v -0.000001 2.092003 0.051437
v 0.008878 2.092003 0.060440
v -0.008880 2.092003 0.060440
v -0.000001 2.092003 0.069444
v 0.009444 2.084177 0.050799
v -0.009446 2.084177 0.050799
v 0.009444 2.084177 0.070082
v -0.009446 2.084177 0.070082
v -0.000001 2.084177 0.046871
v 0.013344 2.084177 0.060440
v -0.013346 2.084177 0.060440
v -0.000001 2.084177 0.074010
v -0.000001 2.021816 -0.201640
v 0.183290 2.021816 -0.125414
v -0.000001 2.021816 0.322520
v 0.183290 2.021816 0.246295
v 0.258464 2.021816 0.060440
v -0.258467 2.021816 0.060440
v -0.183292 2.021816 0.246295
v -0.183292 2.021816 -0.125414
v 0.932721 0.000000 -5.000000
v 2.301095 0.000000 -5.000000
v 0.932721 2.000000 -5.000000
v 2.301095 2.000000 -5.000000
v 2.301095 0.000000 -4.689559
v 1.624375 0.000000 -4.689559
v 0.932721 0.000000 -4.689559
v 0.932721 2.000000 -4.765589
v 2.301095 2.000000 -4.765589
v 0.932721 0.000000 -4.634066
v 2.301095 0.000000 -4.634066
v 1.662343 0.000000 -4.634066
vt 0.634148 0.740852
vt 0.692473 0.532488
vt 0.726682 0.532488
vt 0.692472 0.509148
vt 0.708441 0.509148
vt 0.625000 0.750000
vt 0.375000 1.000000
vt 0.375000 0.750000
vt 0.625000 0.000000
vt 0.375000 0.250000
vt 0.375000 0.000000
vt 0.375000 0.500000
vt 0.125000 0.750000
vt 0.125000 0.500000
vt 0.625000 0.500000
vt 0.625000 0.432527
vt 0.867239 0.742239
vt 0.632761 0.742239
vt 0.632761 0.742239
vt 0.867239 0.507761
vt 0.867239 0.742239
vt 0.625000 0.750000
vt 0.625000 0.250000
vt 0.625000 0.250000
vt 0.865852 0.740852
vt 0.632761 0.507761
vt 0.634148 0.509148
vt 0.865852 0.509148
vt 0.692473 0.507761
vt 0.726682 0.507761
vt 0.867239 0.507761
vt 0.709391 0.507761
vt 0.726682 0.509148
vt 0.632761 0.507761
vt 0.625000 0.500000
vt 0.875000 0.750000
vt 0.875000 0.500000
vt 0.875000 0.500000
vt 0.625000 0.398318
vt 0.625000 1.000000
vt 0.625000 1.000000
vt 0.727055 0.507761
vt 0.693391 0.507761
vt 0.632761 0.507761
vt 0.867239 0.507761
vt 0.632761 0.507761
vt 0.625000 0.500000
vt 0.867239 0.507761
vt 0.867239 0.507761
vt 0.750000 0.507761
vt 0.858047 0.507761
vt 0.858047 0.507761
vt 0.632761 0.507761
vt 0.641953 0.507761
vt 0.858047 0.507761
vt 0.750000 0.507761
vt 0.641953 0.507761
vt 0.641953 0.507761
vt 0.858047 0.507761
vt 0.858047 0.507761
vt 0.858047 0.507761
vt 0.641953 0.507761
vt 0.858047 0.507761
vt 0.750000 0.507761
vt 0.750000 0.507761
vt 0.641953 0.507761
vt 0.641953 0.507761
vt 0.670842 0.507761
vt 0.659253 0.507761
vt 0.829157 0.507761
vt 0.858047 0.507761
vt 0.641953 0.507761
vt 0.641953 0.507761
vt 0.750000 0.507761
vt 0.858047 0.507761
vt 0.750000 0.507761
vt 0.641953 0.507761
vt 0.750000 0.507761
vt 0.750000 0.507761
vt 0.829158 0.507761
vt 0.840747 0.507761
vt 0.670842 0.507761
vt 0.375000 0.162441
vt 0.625000 0.133139
vt 0.375000 0.123636
vt 0.625000 0.616861
vt 0.375000 0.587559
vt 0.375000 0.626364
vt 0.125000 0.587559
vt 0.251364 0.626364
vt 0.625000 0.587559
vt 0.875000 0.616861
vt 0.875000 0.587559
vt 0.625000 0.398318
vt 0.625000 0.000000
vt 0.625000 0.432527
vt 0.625000 0.250000
vt 0.625000 0.162441
vt 0.125000 0.626364
vn 0.0000 1.0000 0.0000
vn 0.0000 0.0000 1.0000
vn -1.0000 0.0000 0.0000
vn 0.0000 -1.0000 0.0000
vn 1.0000 0.0000 0.0000
vn 0.0000 0.0000 -1.0000
vn 1.0000 0.0000 -0.0099
vn -0.0046 1.0000 0.0000
vn -0.0001 1.0000 -0.0001
vn -0.7051 0.0000 0.7091
vn 0.0000 0.0380 0.9993
vn -0.9993 0.0375 0.0000
vn 0.0000 1.0000 -0.0046
vn 0.7051 0.0000 0.7091
vn -0.3840 0.0000 -0.9233
vn -0.2691 0.9570 -0.1087
vn 0.9270 -0.0000 -0.3750
vn -0.3840 0.0000 0.9233
vn 0.3840 -0.0000 -0.9233
vn 0.9270 -0.0000 0.3750
vn -0.9270 0.0000 0.3750
vn 0.3840 -0.0000 0.9233
vn -0.9270 0.0000 -0.3750
vn -0.1105 0.9577 -0.2656
vn 0.2691 0.9569 -0.1088
vn 0.1105 0.9577 -0.2656
vn -0.1105 0.9577 0.2656
vn 0.2691 0.9569 0.1088
vn -0.2691 0.9569 0.1088
vn 0.1105 0.9577 0.2656
vn -0.1007 -0.9650 0.2422
vn -0.1007 -0.9650 -0.2422
vn -0.2453 -0.9643 0.0992
vn 0.2453 -0.9643 -0.0993
vn 0.1007 -0.9650 0.2422
vn -0.2453 -0.9643 -0.0992
vn 0.2453 -0.9643 0.0992
vn 0.1007 -0.9650 -0.2422
vn 0.9993 0.0375 0.0000
vn 0.0001 1.0000 -0.0001
vn 0.0046 1.0000 0.0000
vn -1.0000 0.0000 -0.0099
vn -0.2691 0.9569 -0.1088
vn -0.2691 0.9570 0.1087
vn 0.2453 -0.9643 -0.0992
vn 0.2453 -0.9643 0.0993
usemtl Material
s off
f 4/1/1 7/2/1 2/3/1
f 7/2/1 77/4/1 78/5/1
f 11/6/2 10/7/2 5/8/2
f 12/9/3 8/10/3 10/11/3
f 3/12/4 10/13/4 8/14/4
f 13/15/5 5/8/5 3/12/5
f 68/16/6 13/15/6 3/12/6
f 16/17/6 23/18/6 15/19/6
f 16/17/7 35/20/7 24/21/7
f 13/15/5 19/22/5 11/6/5
f 12/9/3 22/23/3 14/24/3
f 9/25/1 15/19/1 4/1/1
f 4/1/1 17/26/1 1/27/1
f 6/28/1 16/17/1 9/25/1
f 1/27/1 71/29/1 77/4/1
f 6/28/1 73/30/1 18/31/1
f 71/29/1 78/5/1 77/4/1
f 72/32/1 76/33/1 78/5/1
f 24/21/1 19/22/1 23/18/1
f 36/34/8 19/22/8 21/35/8
f 35/20/9 20/36/9 24/21/9
f 35/20/10 28/37/10 22/38/10
f 22/23/6 21/35/6 69/39/6
f 11/6/2 20/40/2 12/41/2
f 74/42/11 75/43/11 36/34/11
f 15/19/12 36/34/12 17/26/12
f 29/44/13 28/37/13 30/45/13
f 29/44/5 38/46/5 36/34/5
f 22/23/6 27/47/6 21/35/6
f 21/35/14 29/44/14 36/34/14
f 38/46/2 34/48/2 37/49/2
f 35/20/3 34/48/3 30/45/3
f 39/50/15 44/51/15 26/52/15
f 30/45/1 33/53/1 29/44/1
f 36/34/4 25/54/4 39/50/4
f 37/49/4 32/55/4 42/56/4
f 38/46/4 31/57/4 40/58/4
f 35/20/4 26/52/4 41/59/4
f 44/51/16 64/60/16 49/61/16
f 40/58/17 43/62/17 25/54/17
f 42/56/18 46/63/18 50/64/18
f 25/54/19 47/65/19 39/50/19
f 31/57/20 48/66/20 40/58/20
f 41/59/21 46/63/21 32/55/21
f 31/57/22 50/64/22 45/67/22
f 26/52/23 49/61/23 41/59/23
f 51/68/4 56/69/4 52/70/4
f 47/65/24 66/71/24 44/51/24
f 43/62/25 63/72/25 60/73/25
f 47/65/26 60/73/26 59/74/26
f 50/64/27 65/75/27 61/76/27
f 45/67/28 63/72/28 48/66/28
f 46/63/29 64/60/29 65/75/29
f 50/64/30 62/77/30 45/67/30
f 55/78/31 60/73/31 51/68/31
f 58/79/32 62/77/32 61/76/32
f 51/68/33 63/72/33 56/69/33
f 54/80/34 64/60/34 57/81/34
f 55/78/35 66/71/35 59/74/35
f 53/82/36 63/72/36 62/77/36
f 52/70/37 64/60/37 66/71/37
f 58/79/38 65/75/38 54/80/38
f 67/83/5 74/84/5 73/85/5
f 75/86/3 68/87/3 71/88/3
f 67/89/1 72/90/1 68/87/1
f 70/91/4 74/92/4 69/93/4
f 76/33/1 6/28/1 2/3/1
f 6/28/1 9/25/1 2/3/1
f 9/25/1 4/1/1 2/3/1
f 4/1/1 1/27/1 7/2/1
f 1/27/1 77/4/1 7/2/1
f 78/5/1 76/33/1 2/3/1
f 2/3/1 7/2/1 78/5/1
f 11/6/2 12/41/2 10/7/2
f 12/9/3 14/24/3 8/10/3
f 3/12/4 5/8/4 10/13/4
f 13/15/5 11/6/5 5/8/5
f 3/12/6 8/10/6 67/94/6
f 8/10/6 14/24/6 67/94/6
f 67/94/6 68/16/6 3/12/6
f 16/17/6 24/21/6 23/18/6
f 16/17/39 18/31/39 35/20/39
f 13/15/5 21/35/5 19/22/5
f 12/9/3 20/95/3 22/23/3
f 9/25/1 16/17/1 15/19/1
f 4/1/1 15/19/1 17/26/1
f 6/28/1 18/31/1 16/17/1
f 1/27/1 17/26/1 71/29/1
f 6/28/1 76/33/1 73/30/1
f 71/29/1 72/32/1 78/5/1
f 72/32/1 73/30/1 76/33/1
f 24/21/1 20/36/1 19/22/1
f 36/34/40 23/18/40 19/22/40
f 35/20/41 22/38/41 20/36/41
f 35/20/10 30/45/10 28/37/10
f 67/94/6 14/24/6 69/39/6
f 14/24/6 22/23/6 69/39/6
f 21/35/6 13/15/6 70/96/6
f 13/15/6 68/16/6 70/96/6
f 21/35/6 70/96/6 69/39/6
f 11/6/2 19/22/2 20/40/2
f 75/43/11 71/29/11 17/26/11
f 35/20/11 18/31/11 74/42/11
f 18/31/11 73/30/11 74/42/11
f 75/43/11 17/26/11 36/34/11
f 35/20/11 74/42/11 36/34/11
f 15/19/42 23/18/42 36/34/42
f 29/44/13 27/47/13 28/37/13
f 29/44/5 33/53/5 38/46/5
f 22/23/6 28/97/6 27/47/6
f 21/35/14 27/47/14 29/44/14
f 38/46/2 33/53/2 34/48/2
f 35/20/3 37/49/3 34/48/3
f 39/50/15 47/65/15 44/51/15
f 30/45/1 34/48/1 33/53/1
f 39/50/4 26/52/4 35/20/4
f 35/20/4 36/34/4 39/50/4
f 42/56/4 31/57/4 38/46/4
f 38/46/4 37/49/4 42/56/4
f 40/58/4 25/54/4 36/34/4
f 36/34/4 38/46/4 40/58/4
f 41/59/4 32/55/4 37/49/4
f 37/49/4 35/20/4 41/59/4
f 44/51/43 66/71/43 64/60/43
f 40/58/17 48/66/17 43/62/17
f 42/56/18 32/55/18 46/63/18
f 25/54/19 43/62/19 47/65/19
f 31/57/20 45/67/20 48/66/20
f 41/59/21 49/61/21 46/63/21
f 31/57/22 42/56/22 50/64/22
f 26/52/23 44/51/23 49/61/23
f 53/82/4 58/79/4 54/80/4
f 54/80/4 57/81/4 53/82/4
f 57/81/4 52/70/4 56/69/4
f 53/82/4 57/81/4 56/69/4
f 52/70/4 55/78/4 51/68/4
f 47/65/24 59/74/24 66/71/24
f 43/62/25 48/66/25 63/72/25
f 47/65/26 43/62/26 60/73/26
f 50/64/27 46/63/27 65/75/27
f 45/67/28 62/77/28 63/72/28
f 46/63/44 49/61/44 64/60/44
f 50/64/30 61/76/30 62/77/30
f 55/78/31 59/74/31 60/73/31
f 58/79/32 53/82/32 62/77/32
f 51/68/33 60/73/33 63/72/33
f 54/80/45 65/75/45 64/60/45
f 55/78/35 52/70/35 66/71/35
f 53/82/36 56/69/36 63/72/36
f 52/70/46 57/81/46 64/60/46
f 58/79/38 61/76/38 65/75/38
f 67/83/5 69/98/5 74/84/5
f 75/86/3 70/91/3 68/87/3
f 73/99/1 72/90/1 67/89/1
f 72/90/1 71/88/1 68/87/1
f 70/91/4 75/86/4 74/92/4
