# Blender v3.0.0 OBJ File: 'lantern.blend'
# www.blender.org
mtllib lantern.mtl
o Cylinder_Cylinder.001
v -0.098919 0.295059 0.016251
v 0.000000 0.016886 -0.126956
v -0.081083 0.288021 0.014129
v 0.000000 -0.001644 -0.126956
v 0.089771 0.016886 -0.089771
v -0.073732 0.305098 0.019277
v -0.091568 0.312136 0.021398
v 0.089771 -0.001644 -0.089771
v 0.126956 0.016886 0.000000
v -0.055410 0.293679 0.083585
v -0.046276 0.286917 0.067997
v 0.126956 -0.001644 0.000000
v -0.047626 0.304270 0.059677
v 0.089771 0.016886 0.089771
v 0.089771 -0.001644 0.089771
v -0.056761 0.311032 0.075266
v -0.000000 0.016886 0.126956
v 0.014990 0.328889 0.068320
v 0.010044 0.315085 0.055785
v -0.000000 -0.001644 0.126956
v -0.089771 0.016886 0.089771
v -0.005386 0.325396 0.050518
v -0.089771 -0.001644 0.089771
v -0.000440 0.339200 0.063054
v -0.126956 0.016886 -0.000000
v 0.014990 0.352030 -0.008449
v -0.126956 -0.001644 -0.000000
v -0.089771 0.016886 -0.089771
v -0.000440 0.357713 0.001639
v -0.089771 -0.001644 -0.089771
v 0.000000 0.239509 -0.126956
v -0.055410 0.331121 -0.040630
v -0.046276 0.316871 -0.031375
v 0.089771 0.239509 -0.089771
v 0.126956 0.239509 0.000000
v -0.047626 0.326735 -0.014852
v -0.056761 0.340986 -0.024106
v 0.089771 0.239509 0.089771
v -0.000000 0.239509 0.126956
v -0.089771 0.239509 0.089771
v -0.126956 0.239509 -0.000000
v -0.089771 0.239509 -0.089771
v -0.005948 0.344461 0.005948
v 0.008641 0.341090 -0.008641
v 0.000000 0.340293 -0.013120
v 0.012366 0.336426 0.012366
v 0.012548 0.340800 0.000000
v 0.011570 0.339282 -0.006500
v -0.003724 0.344461 0.006869
v -0.007741 0.344461 0.001620
v 0.010044 0.323473 0.027958
v -0.003996 0.344461 0.003665
v -0.000000 0.330181 0.024542
v -0.005386 0.335818 0.015944
v -0.020025 0.326836 -0.020025
v -0.012874 0.340511 0.000000
v -0.023210 0.323721 -0.020831
v -0.017945 0.335550 -0.001284
vt 0.234329 0.812240
vt 0.107144 0.837836
vt 0.107144 0.813945
vt 0.330726 0.827807
vt 0.234329 0.836132
vt 0.241353 0.047992
vt 0.331518 0.023674
vt 0.331518 0.047992
vt 0.113839 0.047992
vt 0.241353 0.023674
vt 0.023674 0.047992
vt 0.113839 0.023674
vt 0.498702 0.471887
vt 0.378865 0.489667
vt 0.378865 0.465603
vt 0.466306 0.543298
vt 0.677405 0.635135
vt 0.589965 0.851988
vt 0.614252 0.464111
vt 0.498702 0.495951
vt 0.023674 0.855814
vt 0.023674 0.831923
vt 0.113839 0.340141
vt 0.661599 0.125541
vt 0.849086 0.177546
vt 0.842038 0.187820
vt 0.023674 0.544900
vt 0.107144 0.526922
vt 0.331518 0.340141
vt 0.378865 0.176508
vt 0.241353 0.340141
vt 0.498702 0.182791
vt 0.234329 0.525217
vt 0.817980 0.488344
vt 0.814733 0.486715
vt 0.817980 0.482234
vt 0.743499 0.030859
vt 0.861255 0.156357
vt 0.483929 0.023674
vt 0.489707 0.023976
vt 0.492126 0.030063
vt 0.186379 0.467325
vt 0.175733 0.450326
vt 0.838903 0.191772
vt 0.614252 0.175015
vt 0.520033 0.053648
vt 0.023674 0.340141
vt 0.165271 0.459129
vt 0.163058 0.466527
vt 0.663532 0.252257
vt 0.845677 0.214058
vt 0.748165 0.336777
vt 0.749758 0.605365
vt 0.774775 0.699506
vt 0.724752 0.606937
vt 0.908602 0.091165
vt 0.954584 0.040614
vt 0.933504 0.091232
vt 0.942658 0.331383
vt 0.933909 0.254822
vt 0.959451 0.312447
vt 0.749345 0.831979
vt 0.756850 0.746853
vt 0.775023 0.763878
vt 0.661599 0.391916
vt 0.677957 0.487988
vt 0.661599 0.475007
vt 0.936709 0.159860
vt 0.954584 0.142754
vt 0.959451 0.219315
vt 0.908602 0.254549
vt 0.942658 0.207207
vt 0.697221 0.475582
vt 0.677957 0.384124
vt 0.697221 0.392491
vt 0.860701 0.799082
vt 0.853312 0.807154
vt 0.837124 0.811370
vt 0.836974 0.391407
vt 0.829211 0.423844
vt 0.814733 0.419118
vt 0.744568 0.442035
vt 0.767386 0.384124
vt 0.767386 0.468301
vt 0.862299 0.630849
vt 0.875997 0.713279
vt 0.837124 0.631000
vt 0.855359 0.829511
vt 0.876784 0.854520
vt 0.877572 0.908494
vt 0.906590 0.424969
vt 0.884321 0.400630
vt 0.906590 0.384124
vt 0.961958 0.655554
vt 0.960198 0.662837
vt 0.949616 0.679225
vt 0.893397 0.560687
vt 0.875997 0.543298
vt 0.774775 0.543298
vt 0.960140 0.560039
vt 0.976326 0.618566
vt 0.960140 0.616490
vt 0.940744 0.545074
vt 0.940744 0.620342
vt 0.756850 0.917105
vt 0.775022 0.900079
vt 0.330726 0.851699
vt 0.023674 0.023673
vt 0.466306 0.850981
vt 0.378865 0.760151
vt 0.378865 0.632704
vt 0.589965 0.544304
vt 0.677405 0.762581
vt 0.614252 0.488174
vt 0.330726 0.540784
vt 0.815916 0.490658
vt 0.861255 0.023674
vt 0.841713 0.200166
vt 0.494102 0.037454
vt 0.518792 0.049007
vt 0.169631 0.477870
vt 0.167397 0.477870
vt 0.789777 0.679420
vt 0.936709 0.023674
vt 0.724752 0.831979
vt 0.854586 0.811999
vt 0.877572 0.760626
vt 0.894732 0.771684
vt 0.880071 0.790077
vt 0.814733 0.384124
vt 0.836974 0.434887
vt 0.744568 0.394646
vt 0.750982 0.460737
vt 0.752236 0.456711
vt 0.893397 0.696672
vt 0.881480 0.858157
vt 0.894732 0.889979
vt 0.852732 0.816974
vt 0.884321 0.432371
vt 0.961965 0.665873
vt 0.964816 0.647522
vt 0.789777 0.554454
vt 0.976326 0.543298
vn 0.3827 0.0000 -0.9239
vn 0.9239 0.0000 -0.3827
vn 0.9239 0.0000 0.3827
vn 0.3827 0.0000 0.9239
vn -0.3827 0.0000 0.9239
vn -0.9239 0.0000 0.3827
vn 0.0000 -1.0000 -0.0000
vn -0.9239 0.0000 -0.3827
vn -0.3827 0.0000 -0.9239
vn 0.2648 0.7220 -0.6392
vn 0.0000 1.0000 0.0000
vn -0.2648 0.7220 -0.6392
vn -0.6392 0.7220 0.2648
vn 0.2648 0.7220 0.6392
vn 0.6392 0.7220 -0.2648
vn -0.6392 0.7220 -0.2648
vn -0.2648 0.7220 0.6392
vn 0.6392 0.7220 0.2648
vn -0.3389 -0.9193 0.2002
vn 0.8224 -0.1926 -0.5353
vn 0.3389 0.9193 -0.2002
vn -0.8224 0.1926 0.5353
vn 0.4635 -0.6809 0.5670
vn 0.0199 -0.4310 -0.9022
vn -0.4635 0.6809 -0.5670
vn -0.0199 0.4310 0.9022
vn 0.9594 -0.2699 -0.0814
vn -0.4760 -0.8420 -0.2538
vn -0.9594 0.2699 0.0814
vn 0.4760 0.8420 0.2538
vn 0.4635 -0.2542 -0.8489
vn 0.0199 -0.8577 0.5137
vn -0.4635 0.2542 0.8489
vn -0.0199 0.8577 -0.5137
vn -0.3389 -0.6555 -0.6749
vn 0.8224 -0.4564 0.3397
vn 0.3389 0.6555 0.6749
vn -0.8224 0.4564 -0.3397
usemtl Material
s off
f 5/1/1 4/2/1 2/3/1
f 9/4/2 8/5/2 5/1/2
f 14/6/3 12/7/3 9/8/3
f 17/9/4 15/10/4 14/6/4
f 21/11/5 20/12/5 17/9/5
f 25/13/6 23/14/6 21/15/6
f 15/16/7 23/17/7 30/18/7
f 28/19/8 27/20/8 25/13/8
f 2/3/9 30/21/9 28/22/9
f 39/23/5 21/11/5 17/9/5
f 34/24/10 45/25/10 44/26/10
f 42/27/9 2/3/9 28/22/9
f 31/28/1 5/1/1 2/3/1
f 35/29/3 14/6/3 9/8/3
f 40/30/6 25/13/6 21/15/6
f 38/31/4 17/9/4 14/6/4
f 41/32/8 28/19/8 25/13/8
f 34/33/2 9/4/2 5/1/2
f 43/34/11 52/35/11 50/36/11
f 31/37/12 55/38/12 45/25/12
f 43/39/13 50/40/13 56/41/13
f 38/31/14 46/42/14 51/43/14
f 34/24/15 44/26/15 48/44/15
f 42/45/16 41/32/16 57/46/16
f 40/47/17 53/48/17 54/49/17
f 35/50/18 46/51/18 38/52/18
f 3/53/19 10/54/19 1/55/19
f 11/56/20 6/57/20 13/58/20
f 7/59/21 13/60/21 6/61/21
f 7/62/22 10/63/22 16/64/22
f 19/65/23 10/66/23 11/67/23
f 19/68/24 13/58/24 22/69/24
f 22/70/25 16/71/25 24/72/25
f 16/73/26 18/74/26 24/75/26
f 46/76/27 47/77/27 26/78/27
f 22/79/28 53/80/28 51/81/28
f 54/82/29 24/83/29 29/84/29
f 29/85/30 18/86/30 26/87/30
f 45/88/31 55/89/31 32/90/31
f 36/91/32 57/92/32 58/93/32
f 56/94/33 50/95/33 29/96/33
f 37/97/34 26/87/34 32/98/34
f 32/99/35 3/53/35 1/55/35
f 6/100/36 33/101/36 36/102/36
f 7/103/37 36/102/37 37/104/37
f 32/105/38 7/62/38 37/106/38
f 5/1/1 8/5/1 4/2/1
f 9/4/2 12/107/2 8/5/2
f 14/6/3 15/10/3 12/7/3
f 17/9/4 20/12/4 15/10/4
f 21/11/5 23/108/5 20/12/5
f 25/13/6 27/20/6 23/14/6
f 30/18/7 4/109/7 8/110/7
f 8/110/7 12/111/7 15/16/7
f 15/16/7 20/112/7 23/17/7
f 23/17/7 27/113/7 30/18/7
f 30/18/7 8/110/7 15/16/7
f 28/19/8 30/114/8 27/20/8
f 2/3/9 4/2/9 30/21/9
f 39/23/5 40/47/5 21/11/5
f 34/24/10 31/37/10 45/25/10
f 42/27/9 31/28/9 2/3/9
f 31/28/1 34/33/1 5/1/1
f 35/29/3 38/31/3 14/6/3
f 40/30/6 41/32/6 25/13/6
f 38/31/4 39/23/4 17/9/4
f 41/32/8 42/45/8 28/19/8
f 34/33/2 35/115/2 9/4/2
f 43/34/11 49/116/11 52/35/11
f 31/37/12 42/117/12 55/38/12
f 56/41/13 41/32/13 40/30/13
f 40/30/13 43/39/13 56/41/13
f 51/43/14 53/48/14 39/23/14
f 39/23/14 38/31/14 51/43/14
f 48/44/15 47/118/15 35/50/15
f 35/50/15 34/24/15 48/44/15
f 41/32/16 56/41/16 58/119/16
f 57/46/16 55/120/16 42/45/16
f 41/32/16 58/119/16 57/46/16
f 49/121/17 43/122/17 54/49/17
f 43/122/17 40/47/17 54/49/17
f 40/47/17 39/23/17 53/48/17
f 35/50/18 47/118/18 46/51/18
f 3/53/19 11/123/19 10/54/19
f 11/56/20 3/124/20 6/57/20
f 7/59/21 16/71/21 13/60/21
f 7/62/22 1/125/22 10/63/22
f 19/65/23 18/74/23 10/66/23
f 19/68/24 11/56/24 13/58/24
f 22/70/25 13/60/25 16/71/25
f 16/73/26 10/66/26 18/74/26
f 47/77/27 48/126/27 26/78/27
f 26/78/27 18/127/27 46/76/27
f 18/127/27 19/128/27 51/129/27
f 46/76/27 18/127/27 51/129/27
f 51/81/28 19/130/28 22/79/28
f 22/79/28 54/131/28 53/80/28
f 54/82/29 22/132/29 24/83/29
f 29/84/29 52/133/29 49/134/29
f 49/134/29 54/82/29 29/84/29
f 29/85/30 24/135/30 18/86/30
f 57/136/31 33/137/31 32/90/31
f 26/78/31 48/126/31 44/138/31
f 26/78/31 44/138/31 45/88/31
f 55/89/31 57/136/31 32/90/31
f 26/78/31 45/88/31 32/90/31
f 36/91/32 33/139/32 57/92/32
f 50/95/33 52/140/33 29/96/33
f 29/96/33 37/104/33 56/94/33
f 37/104/33 36/102/33 58/141/33
f 56/94/33 37/104/33 58/141/33
f 37/97/34 29/85/34 26/87/34
f 32/99/35 33/142/35 3/53/35
f 6/100/36 3/143/36 33/101/36
f 7/103/37 6/100/37 36/102/37
f 32/105/38 1/125/38 7/62/38
