# Blender v3.0.0 OBJ File: 'matress.blend'
# www.blender.org
mtllib matress.mtl
o Mattress_Cube
v 0.859894 0.025156 -1.459634
v 0.883674 -0.023656 -1.397640
v -0.624709 0.174634 0.445431
v 0.922870 0.025156 -1.360029
v 0.836295 0.164418 -1.322705
v -0.621668 0.270089 -1.029823
v -0.290088 0.241224 1.315251
v -0.285978 0.292099 1.181426
v -0.009933 0.221868 0.383665
v 0.859894 0.110753 -1.459634
v -0.400036 0.259033 1.215841
v 0.256322 0.199071 -0.945252
v -0.608601 0.225029 0.090195
v 0.922870 0.110753 -1.360029
v -0.648357 0.226326 -0.293079
v 0.922870 0.025156 1.360029
v -0.633853 0.227374 -0.742274
v 0.883674 -0.023656 1.397640
v 0.859894 0.025156 1.459634
v -0.365324 0.233319 -1.077248
v -0.324624 0.285717 0.911679
v 0.084004 0.237143 -0.998818
v 0.922870 0.110753 1.360029
v 0.195684 0.214488 -0.967803
v -0.339557 0.242082 0.730226
v 0.236832 0.261624 -0.718586
v 0.859894 0.110753 1.459634
v 0.049990 0.231431 -0.118363
v 0.836295 0.164418 1.322705
v 0.024554 0.209356 0.166515
v -0.451316 0.270947 0.831017
v -0.120175 0.218830 0.413986
v -0.240866 0.216411 0.413642
v -0.859894 0.025156 -1.459634
v -0.488594 0.181937 0.417867
v -0.922870 0.025156 -1.360029
v -0.883674 -0.023656 -1.397640
v 0.028445 0.273773 -0.662634
v 0.318487 0.297144 1.131204
v -0.063406 0.225765 0.014013
v -0.067805 0.261194 0.220228
v -0.922870 0.110753 -1.360029
v -0.166147 0.250212 -0.700203
v -0.859894 0.110753 -1.459634
v 0.321497 0.247778 1.245809
v -0.216159 0.225818 -0.002074
v 0.416641 0.266284 1.222652
v -0.190098 0.289215 0.261381
v -0.836295 0.164418 -1.322705
v -0.407124 0.227802 -0.738753
v -0.922870 0.025156 1.360029
v -0.371470 0.229158 -0.154884
v -0.859894 0.025156 1.459634
v -0.379784 0.294545 0.175028
v -0.883674 -0.023656 1.397640
v 0.375609 0.299069 0.916106
v -0.836295 0.164418 1.322705
v -0.859894 0.110753 1.459634
v 0.457064 0.263251 0.835418
v -0.922870 0.110753 1.360029
v 0.304973 0.246204 0.778752
v -0.441215 0.164418 0.833727
v -0.423793 0.164418 0.967302
v -0.413465 0.164418 1.248094
v -0.327095 0.164418 1.250090
v -0.337499 0.164418 0.760802
v -0.362728 0.164418 0.786294
v -0.458995 0.164418 1.210310
v 0.205437 0.164418 0.750001
v -0.195961 0.164418 1.233925
v 0.335159 0.164418 1.292834
v 0.433403 0.164418 0.843451
v 0.445462 0.164418 1.092598
v 0.432017 0.164418 1.222876
v 0.376046 0.164418 0.820955
v 0.348185 0.164418 1.291147
v 0.346497 0.164418 0.760385
v -0.782069 0.164418 -0.867457
v -0.651161 0.164418 0.470776
v -0.676428 0.164418 0.083668
v -0.288468 0.164418 -1.072013
v -0.689456 0.164418 -1.160942
v 0.297563 0.164418 -0.432956
v 0.437901 0.164418 -0.942133
v 0.281729 0.164418 -0.452111
v 0.377213 0.164418 -0.987864
v -0.550767 0.164418 0.441417
v -0.799447 0.164418 -1.160234
v -0.777585 0.164418 -1.035581
v -0.032852 0.164418 0.410756
v -0.392039 0.164418 0.415855
v 0.037998 0.164418 0.391983
vt 0.139944 0.418208
vt 0.196920 0.237007
vt 0.129202 0.156132
vt 0.388832 0.032511
vt 0.302110 0.139942
vt 0.348194 0.219630
vt 0.131691 0.039195
vt 0.021689 0.032688
vt 0.868937 0.016313
vt 0.850140 0.556452
vt 0.868937 0.556609
vt 0.892252 0.396591
vt 0.873484 0.771315
vt 0.892252 0.771172
vt 0.411971 0.629845
vt 0.800151 0.015890
vt 0.411971 0.015890
vt 0.834706 0.027203
vt 0.815944 0.599567
vt 0.834706 0.599223
vt 0.815065 0.616531
vt 0.804697 0.605194
vt 0.021689 0.613671
vt 0.002273 0.621714
vt 0.016097 0.643583
vt 0.815944 0.027548
vt 0.815065 0.002618
vt 0.804697 0.017356
vt 0.002273 0.024337
vt 0.016097 0.002455
vt 0.849869 0.002273
vt 0.839253 0.012269
vt 0.850140 0.016156
vt 0.407424 0.621519
vt 0.388832 0.613493
vt 0.393600 0.643401
vt 0.839253 0.567506
vt 0.849869 0.582139
vt 0.407424 0.024142
vt 0.393600 0.002273
vt 0.873484 0.019646
vt 0.894903 0.002564
vt 0.876267 0.002273
vt 0.868666 0.582296
vt 0.833827 0.002273
vt 0.868666 0.002430
vt 0.417194 0.643462
vt 0.800151 0.629845
vt 0.794928 0.002273
vt 0.892119 0.019937
vt 0.876267 0.391754
vt 0.894903 0.392045
vt 0.037620 0.677131
vt 0.050932 0.790033
vt 0.054373 0.654897
vt 0.104472 0.677739
vt 0.126363 0.732132
vt 0.126363 0.648129
vt 0.742644 0.821217
vt 0.780100 0.676944
vt 0.721675 0.689770
vt 0.059828 0.678387
vt 0.082297 0.729402
vt 0.082297 0.648129
vt 0.002878 0.705082
vt 0.018269 0.824260
vt 0.021696 0.683028
vt 0.712178 0.665629
vt 0.692174 0.691463
vt 0.795642 0.648008
vt 0.819487 0.671048
vt 0.724158 0.844443
vt 0.717474 0.824142
vt 0.819487 0.812889
vt 0.790698 0.830183
vt 0.809623 0.846973
vt 0.061689 0.743595
vt 0.078964 0.759554
vt 0.002983 0.826666
vt 0.027339 0.844889
vt 0.005264 0.665531
vt 0.027339 0.648129
vt 0.031905 0.814101
vt 0.054373 0.811547
vt 0.621421 0.731327
vt 0.603644 0.648008
vt 0.598786 0.654377
vt 0.849791 0.683882
vt 0.848802 0.784063
vt 0.865000 0.700734
vt 0.449324 0.934924
vt 0.470606 0.798483
vt 0.430332 0.878261
vt 0.451784 0.984684
vt 0.411971 0.989721
vt 0.426603 0.997727
vt 0.099703 0.664093
vt 0.086844 0.658235
vt 0.087524 0.683112
vt 0.570158 0.664714
vt 0.606970 0.732183
vt 0.467606 0.687460
vt 0.485680 0.721209
vt 0.490562 0.677356
vt 0.511158 0.708426
vt 0.516766 0.673584
vt 0.555140 0.721163
vt 0.465794 0.987683
vt 0.492904 0.916154
vt 0.490986 0.766095
vt 0.466909 0.735724
vt 0.491215 0.990910
vt 0.536170 0.918079
vt 0.524673 0.764728
vt 0.591262 0.993643
vt 0.589550 0.918742
vt 0.563282 0.792998
vt 0.645726 0.975246
vt 0.638901 0.912289
vt 0.627782 0.814210
vt 0.268581 0.558495
vt 0.380744 0.577816
vt 0.356600 0.577983
vt 0.122460 0.540084
vt 0.110430 0.054569
vt 0.107479 0.083182
vt 0.110126 0.137898
vt 0.109139 0.530047
vt 0.143419 0.422413
vt 0.122716 0.142833
vt 0.291316 0.231719
vt 0.279344 0.155968
vt 0.212472 0.232877
vt 0.160166 0.158398
vt 0.375945 0.550442
vt 0.376929 0.513518
vt 0.306013 0.057235
vt 0.298286 0.110608
vt 0.284881 0.150367
vt 0.326157 0.226089
vt 0.353741 0.304644
vt 0.248275 0.052076
vt 0.277060 0.048512
vt 0.296019 0.048941
vt 0.128832 0.039567
vt 0.873484 0.396734
vt 0.794928 0.643462
vt 0.417194 0.002273
vt 0.038650 0.648129
vt 0.031987 0.791009
vt 0.104250 0.649491
vt 0.104365 0.729371
vt 0.058920 0.650236
vt 0.061549 0.723325
vt 0.003424 0.674175
vt 0.002273 0.822155
vt 0.061764 0.735097
vt 0.004251 0.841885
vt 0.006026 0.652284
vt 0.031885 0.793893
vt 0.674559 0.934656
vt 0.687628 0.997727
vt 0.678923 0.971334
vt 0.853368 0.809410
vt 0.856363 0.823391
vt 0.865679 0.847936
vt 0.865679 0.610609
vt 0.865151 0.586842
vt 0.839253 0.630217
vt 0.456471 0.687070
vt 0.426286 0.874603
vt 0.095936 0.793959
vt 0.098405 0.800458
vt 0.098371 0.777758
vt 0.098577 0.742463
vt 0.087650 0.709390
vt 0.099703 0.648129
vt 0.094441 0.763519
vn 0.0000 1.0000 0.0000
vn -1.0000 0.0000 0.0000
vn 0.0000 0.0000 1.0000
vn 0.0000 -1.0000 0.0000
vn 1.0000 0.0000 0.0000
vn 0.8166 -0.2579 -0.5163
vn 0.4220 0.8664 -0.2668
vn 0.8166 -0.2579 0.5163
vn 0.4220 0.8664 0.2668
vn -0.8166 -0.2579 -0.5163
vn -0.4220 0.8664 -0.2668
vn -0.8166 -0.2579 0.5163
vn -0.4220 0.8664 0.2668
vn -0.5269 0.8500 0.0000
vn 0.0000 0.9310 -0.3649
vn 0.8452 0.0000 -0.5344
vn -0.8452 0.0000 0.5344
vn 0.8452 0.0000 0.5344
vn -0.8452 0.0000 -0.5344
vn 0.0000 -0.7857 0.6186
vn 0.7797 -0.6261 0.0000
vn 0.0000 0.9310 0.3649
vn -0.7797 -0.6261 0.0000
vn 0.0000 -0.7857 -0.6186
vn 0.5269 0.8500 0.0000
vn 0.0000 0.0000 -1.0000
vn 0.0909 -0.6694 0.7374
vn 0.9837 0.1487 0.1015
vn -0.0102 0.9997 -0.0222
vn -0.9875 -0.0904 0.1288
vn 0.0710 0.2528 -0.9649
vn -0.1634 0.9238 0.3462
vn 0.0374 0.9709 -0.2366
vn -0.0815 0.9146 0.3961
vn 0.0359 0.9263 -0.3750
vn -0.6699 -0.2655 0.6934
vn -0.1471 0.9878 0.0502
vn -0.6816 -0.2836 -0.6745
vn 0.0115 0.9720 -0.2347
vn 0.3604 -0.1610 -0.9188
vn 0.4337 0.9002 0.0382
vn 0.2296 0.0368 0.9726
vn 0.0304 0.9340 0.3560
vn -0.3415 0.9396 0.0223
vn 0.1699 0.1151 -0.9787
vn 0.5362 0.8180 0.2081
vn 0.1858 0.9512 -0.2465
vn 0.2415 0.3334 0.9113
vn -0.0249 0.9899 0.1393
vn 0.0343 0.9744 0.2223
vn -0.0193 0.9045 0.4260
vn -0.1217 0.9202 0.3722
vn 0.0071 0.9823 -0.1870
vn 0.0389 0.9964 0.0760
vn 0.4188 0.8964 -0.1451
vn 0.0450 0.9957 0.0812
vn -0.0958 0.9877 -0.1234
vn -0.0070 0.9975 0.0698
vn 0.1376 0.9598 -0.2446
vn -0.0933 0.9956 0.0047
vn -0.0120 0.9993 0.0341
vn 0.1383 0.9597 -0.2446
vn -0.0041 0.9892 0.1468
vn -0.0094 1.0000 -0.0018
vn -0.3022 0.9526 0.0346
vn 0.0856 0.9777 -0.1916
vn -0.0969 0.4769 0.8736
vn 0.9706 -0.2362 -0.0470
vn -0.0191 0.9998 0.0039
vn -0.8392 0.5301 -0.1216
vn -0.0185 -0.3667 -0.9302
vn -0.6022 0.3328 0.7257
vn -0.0218 0.3254 0.9453
vn -0.2738 0.9616 0.0165
vn -0.5159 -0.0706 -0.8537
vn -0.0156 0.9358 -0.3522
vn 0.7859 0.4851 -0.3834
vn 0.2377 0.9687 0.0718
vn 0.1111 0.5020 0.8577
vn 0.5357 0.5293 0.6579
vn 0.0251 0.9184 0.3949
vn -0.4663 0.8777 0.1106
vn -0.5608 0.8221 0.0984
vn -0.5606 0.8280 -0.0150
vn -0.6611 0.7467 0.0734
vn -0.6685 0.7400 0.0747
vn -0.6684 0.7403 0.0718
vn -0.3836 0.9234 -0.0102
vn 0.2612 0.9643 -0.0431
vn 0.2135 0.1650 -0.9629
vn -0.0040 0.7796 -0.6262
vn 0.2431 0.9533 -0.1792
vn 0.1181 0.3355 -0.9346
vn 0.7592 0.6455 0.0834
vn 0.4650 0.8732 0.1463
vn 0.1301 0.9856 -0.1076
vn 0.3823 0.9180 0.1053
vn 0.5887 0.7863 0.1876
vn 0.1452 0.8558 0.4965
vn 0.0142 0.0013 0.9999
vn 0.1264 0.6065 0.7849
vn -0.0016 -0.0618 0.9981
vn 0.0187 -0.0118 0.9998
vn -0.3656 0.8961 0.2517
vn 0.5024 0.8641 0.0300
vn 0.3032 0.9105 0.2810
vn -0.1499 0.9105 0.3854
vn 0.3183 0.9205 -0.2267
vn 0.0779 0.9942 0.0743
vn 0.2170 0.9736 -0.0702
vn -0.1251 0.9918 0.0257
vn 0.0181 0.9855 -0.1689
vn -0.0008 0.9990 -0.0444
vn -0.0931 0.9956 0.0034
vn 0.2031 0.9614 -0.1854
vn 0.1481 0.9884 0.0344
vn -0.0019 1.0000 0.0023
usemtl Material
s off
f 83/1/1 92/2/1 77/3/1
f 57/4/1 62/5/1 79/6/1
f 71/7/1 57/4/1 29/8/1
f 42/9/2 51/10/2 60/11/2
f 58/12/3 19/13/3 27/14/3
f 18/15/4 37/16/4 2/17/4
f 23/18/5 4/19/5 14/20/5
f 1/21/6 4/19/6 2/22/6
f 5/23/7 14/24/7 10/25/7
f 16/26/8 19/27/8 18/28/8
f 23/29/9 29/8/9 27/30/9
f 34/31/10 37/32/10 36/33/10
f 42/34/11 49/35/11 44/36/11
f 51/10/12 55/37/12 53/38/12
f 57/4/13 60/39/13 58/40/13
f 42/34/14 57/4/14 49/35/14
f 10/25/15 49/35/15 5/23/15
f 1/41/16 14/42/16 4/43/16
f 60/11/17 53/38/17 58/44/17
f 16/26/18 27/45/18 19/27/18
f 36/33/19 44/46/19 34/31/19
f 19/47/20 55/48/20 18/15/20
f 4/19/21 18/28/21 2/22/21
f 58/40/22 29/8/22 57/4/22
f 51/10/23 37/32/23 55/37/23
f 34/49/24 2/17/24 37/16/24
f 23/29/25 5/23/25 29/8/25
f 10/50/26 34/51/26 44/52/26
f 70/53/27 45/54/27 7/55/27
f 73/56/28 59/57/28 47/58/28
f 39/59/29 21/60/29 8/61/29
f 63/62/30 11/63/30 31/64/30
f 69/65/31 25/66/31 61/67/31
f 11/68/32 7/69/32 8/61/32
f 31/70/33 21/60/33 25/71/33
f 47/72/34 39/59/34 45/73/34
f 61/74/35 56/75/35 59/76/35
f 65/77/36 7/78/36 11/63/36
f 11/68/37 21/60/37 31/70/37
f 67/79/38 31/80/38 25/66/38
f 21/60/39 61/74/39 25/71/39
f 75/81/40 61/67/40 59/82/40
f 56/75/41 47/72/41 59/76/41
f 74/83/42 47/84/42 45/54/42
f 45/73/43 8/61/43 7/69/43
f 80/85/44 79/86/44 3/87/44
f 20/88/45 22/89/45 81/90/45
f 26/91/46 28/92/46 85/93/46
f 12/94/47 84/95/47 86/96/47
f 90/97/48 9/98/48 32/99/48
f 35/100/49 13/101/49 3/87/49
f 9/102/50 41/103/50 32/104/50
f 32/104/51 48/105/51 33/106/51
f 33/106/52 54/107/52 35/100/52
f 26/91/53 24/108/53 38/109/53
f 28/92/54 38/109/54 40/110/54
f 30/111/55 40/110/55 41/103/55
f 30/111/56 28/92/56 40/110/56
f 38/109/57 22/112/57 43/113/57
f 38/109/58 46/114/58 40/110/58
f 41/103/59 46/114/59 48/105/59
f 43/113/60 20/115/60 50/116/60
f 43/113/61 52/117/61 46/114/61
f 46/114/62 54/107/62 48/105/62
f 50/116/63 6/118/63 17/119/63
f 50/116/64 15/120/64 52/117/64
f 54/107/65 15/120/65 13/101/65
f 54/107/66 52/117/66 15/120/66
f 5/23/1 49/35/1 81/121/1
f 49/35/1 88/122/1 82/123/1
f 82/123/1 81/121/1 49/35/1
f 81/121/1 86/124/1 5/23/1
f 74/125/1 29/8/1 73/126/1
f 29/8/1 5/23/1 83/1/1
f 73/126/1 29/8/1 72/127/1
f 72/127/1 29/8/1 83/1/1
f 84/128/1 85/129/1 83/1/1
f 5/23/1 86/124/1 84/128/1
f 77/3/1 75/130/1 72/127/1
f 91/131/1 66/132/1 90/133/1
f 66/132/1 69/134/1 90/133/1
f 77/3/1 72/127/1 83/1/1
f 69/134/1 77/3/1 92/2/1
f 90/133/1 69/134/1 92/2/1
f 5/23/1 84/128/1 83/1/1
f 89/135/1 88/122/1 78/136/1
f 88/122/1 49/35/1 78/136/1
f 57/4/1 68/137/1 63/138/1
f 62/5/1 67/139/1 87/140/1
f 67/139/1 66/132/1 87/140/1
f 57/4/1 63/138/1 62/5/1
f 79/6/1 80/141/1 57/4/1
f 80/141/1 78/136/1 57/4/1
f 91/131/1 87/140/1 66/132/1
f 87/140/1 79/6/1 62/5/1
f 78/136/1 49/35/1 57/4/1
f 71/7/1 70/142/1 65/143/1
f 64/144/1 68/137/1 57/4/1
f 71/7/1 65/143/1 57/4/1
f 65/143/1 64/144/1 57/4/1
f 29/8/1 74/125/1 76/145/1
f 29/8/1 76/145/1 71/7/1
f 42/9/2 36/33/2 51/10/2
f 58/12/3 53/146/3 19/13/3
f 18/15/4 55/48/4 37/16/4
f 23/18/5 16/26/5 4/19/5
f 42/34/14 60/39/14 57/4/14
f 10/25/15 44/36/15 49/35/15
f 1/41/16 10/50/16 14/42/16
f 60/11/17 51/10/17 53/38/17
f 16/26/18 23/18/18 27/45/18
f 36/33/19 42/9/19 44/46/19
f 19/47/20 53/147/20 55/48/20
f 4/19/21 16/26/21 18/28/21
f 58/40/22 27/30/22 29/8/22
f 51/10/23 36/33/23 37/32/23
f 34/49/24 1/148/24 2/17/24
f 23/29/25 14/24/25 5/23/25
f 10/50/26 1/41/26 34/51/26
f 7/55/27 65/149/27 70/53/27
f 70/53/67 71/150/67 45/54/67
f 47/58/28 74/151/28 73/56/28
f 73/56/68 72/152/68 59/57/68
f 39/59/69 56/75/69 21/60/69
f 31/64/30 62/153/30 63/62/30
f 63/62/70 68/154/70 11/63/70
f 61/67/31 77/155/31 69/65/31
f 69/65/71 66/156/71 25/66/71
f 11/63/72 68/154/72 64/157/72
f 64/157/73 65/77/73 11/63/73
f 11/68/74 8/61/74 21/60/74
f 25/66/38 66/156/38 67/79/38
f 67/79/75 62/158/75 31/80/75
f 21/60/76 56/75/76 61/74/76
f 59/82/40 72/159/40 75/81/40
f 75/81/77 77/155/77 61/67/77
f 56/75/78 39/59/78 47/72/78
f 71/150/79 76/160/79 45/54/79
f 76/160/80 74/83/80 45/54/80
f 45/73/81 39/59/81 8/61/81
f 17/119/82 6/118/82 78/161/82
f 6/118/83 88/162/83 89/163/83
f 89/163/84 78/161/84 6/118/84
f 78/161/85 80/85/85 15/120/85
f 3/87/86 13/101/86 80/85/86
f 13/101/87 15/120/87 80/85/87
f 15/120/88 17/119/88 78/161/88
f 24/164/89 12/165/89 86/166/89
f 81/90/90 82/167/90 20/88/90
f 82/167/91 88/168/91 6/169/91
f 20/88/91 82/167/91 6/169/91
f 24/164/92 86/166/92 22/89/92
f 86/166/93 81/90/93 22/89/93
f 30/111/94 9/102/94 92/170/94
f 92/170/95 83/171/95 30/111/95
f 83/171/96 85/93/96 28/92/96
f 30/111/97 83/171/97 28/92/97
f 85/93/98 84/95/98 26/91/98
f 12/94/47 26/91/47 84/95/47
f 3/172/99 79/173/99 87/174/99
f 91/175/100 90/97/100 33/176/100
f 90/97/48 92/177/48 9/98/48
f 3/172/101 87/174/101 35/178/101
f 87/174/101 91/175/101 35/178/101
f 32/99/102 33/176/102 90/97/102
f 33/176/103 35/178/103 91/175/103
f 35/100/104 54/107/104 13/101/104
f 9/102/105 30/111/105 41/103/105
f 32/104/106 41/103/106 48/105/106
f 33/106/107 48/105/107 54/107/107
f 26/91/108 12/94/108 24/108/108
f 28/92/109 26/91/109 38/109/109
f 38/109/110 24/108/110 22/112/110
f 38/109/111 43/113/111 46/114/111
f 41/103/112 40/110/112 46/114/112
f 43/113/113 22/112/113 20/115/113
f 43/113/114 50/116/114 52/117/114
f 46/114/115 52/117/115 54/107/115
f 50/116/116 20/115/116 6/118/116
f 50/116/117 17/119/117 15/120/117
